<?xml version="1.0" standalone="no"?>
<!DOCTYPE svg PUBLIC "-//W3C//DTD SVG 20010904//EN"
 "http://www.w3.org/TR/2001/REC-SVG-20010904/DTD/svg10.dtd">
<svg version="1.0" xmlns="http://www.w3.org/2000/svg"
 width="665.000000pt" height="375.000000pt" viewBox="0 0 665.000000 375.000000"
 preserveAspectRatio="xMidYMid meet">

<g transform="translate(0.000000,375.000000) scale(0.100000,-0.100000)"
fill="#000000" stroke="none">
<path d="M4040 2920 c-9 -6 -10 -10 -3 -10 6 0 15 5 18 10 8 12 4 12 -15 0z"/>
<path d="M3915 2857 c-38 -23 -91 -57 -117 -75 -30 -21 -57 -32 -76 -30 -20 1
-53 -15 -116 -58 -49 -32 -100 -66 -113 -74 -40 -25 -53 -135 -19 -167 13 -13
20 -14 23 -6 16 44 90 101 203 156 70 33 166 114 252 210 52 58 64 76 52 81
-9 3 -16 6 -17 6 -1 0 -33 -20 -72 -43z m45 -17 c0 -5 -4 -10 -10 -10 -5 0
-10 5 -10 10 0 6 5 10 10 10 6 0 10 -4 10 -10z"/>
<path d="M3170 2851 c0 -6 4 -12 8 -15 5 -3 9 1 9 9 0 8 -4 15 -9 15 -4 0 -8
-4 -8 -9z"/>
<path d="M3104 2819 c-3 -5 -16 -9 -29 -9 -13 0 -30 -9 -39 -21 -10 -15 -20
-19 -35 -14 -13 4 -21 2 -21 -5 0 -6 4 -9 9 -5 5 3 13 0 17 -6 5 -8 -3 -10
-25 -7 -36 5 -42 -8 -8 -22 20 -8 19 -8 -8 -8 -16 1 -39 -2 -50 -6 -16 -7 -17
-6 -5 4 12 9 10 10 -10 4 -31 -8 -90 -51 -90 -65 0 -6 -10 -8 -22 -4 -20 5
-21 5 -5 -5 9 -6 14 -16 11 -22 -5 -7 -1 -9 9 -5 11 4 17 1 17 -9 0 -16 50
-75 50 -59 1 21 31 -71 31 -95 0 -34 19 -90 29 -90 11 0 31 70 24 81 -3 5 2
19 10 31 7 13 17 34 21 48 14 48 39 95 72 137 18 23 33 48 33 57 0 9 5 16 10
16 14 0 12 27 -2 33 -7 3 -1 6 14 6 20 1 26 5 22 16 -4 10 0 15 11 15 9 0 13
-5 9 -11 -4 -7 -2 -10 5 -8 7 3 12 9 12 14 0 13 -60 25 -67 14z m-33 -65 c10
-13 10 -17 -2 -24 -10 -7 -15 -5 -17 5 -2 9 -8 13 -13 10 -5 -3 -6 1 -3 9 8
20 18 20 35 0z m-188 -59 c-3 -9 -8 -14 -10 -11 -3 3 -2 9 2 15 9 16 15 13 8
-4z"/>
<path d="M2745 2631 c-6 -11 13 -26 22 -17 4 3 0 6 -8 7 -8 0 -6 4 6 9 16 7
17 9 3 9 -9 1 -19 -3 -23 -8z"/>
<path d="M2788 2603 c7 -3 16 -2 19 1 4 3 -2 6 -13 5 -11 0 -14 -3 -6 -6z"/>
<path d="M3140 1871 c0 -6 4 -13 10 -16 6 -3 7 1 4 9 -7 18 -14 21 -14 7z"/>
<path d="M3290 1861 c0 -6 4 -13 10 -16 6 -3 7 1 4 9 -7 18 -14 21 -14 7z"/>
<path d="M3047 1834 c-3 -3 -3 -13 0 -22 5 -11 2 -14 -9 -9 -24 9 -33 -32 -33
-153 0 -93 2 -105 18 -108 10 -2 27 4 38 14 61 55 -37 -100 -106 -167 l-55
-53 0 -78 0 -78 279 0 279 0 -6 243 c-5 241 -5 242 -31 277 -14 19 -36 45 -48
57 -13 12 -24 28 -24 35 -1 7 -4 0 -8 -15 l-6 -28 -24 22 c-24 22 -24 22 -19
2 4 -16 2 -19 -13 -16 -10 3 -24 11 -30 19 -17 21 -31 17 -24 -6 3 -11 2 -20
-3 -20 -5 0 -1 -33 10 -72 14 -55 18 -96 16 -168 -4 -103 -22 -154 -81 -225
-26 -32 -31 -34 -46 -22 -9 8 -26 13 -38 12 -27 -2 -29 15 -8 74 9 28 16 97
18 207 3 91 7 168 11 171 3 4 6 -2 6 -12 0 -10 3 -16 6 -12 12 11 -7 87 -22
87 -8 0 -14 10 -14 25 0 23 -18 34 -33 19z m3 -74 c0 -5 -4 -10 -10 -10 -5 0
-10 5 -10 10 0 6 5 10 10 10 6 0 10 -4 10 -10z m9 -114 c-1 -28 -4 -41 -6 -28
-2 12 -9 22 -14 22 -5 0 -9 16 -9 35 0 26 3 33 15 29 11 -5 15 -20 14 -58z"/>
<path d="M3170 1825 c0 -5 5 -17 10 -25 5 -8 10 -10 10 -5 0 6 -5 17 -10 25
-5 8 -10 11 -10 5z"/>
<path d="M3310 1792 c6 -13 14 -21 18 -18 3 4 -2 14 -12 24 -18 16 -18 16 -6
-6z"/>
</g>
</svg>
